# xmcd CD database file
#
# Track frame offsets:
#	150
#	12319
#	18660
#	32326
#	39771
#	53516
#	66671
#	83252
#	100543
#	111197
#	118577
#	125591
#	136295
#	147197
#	161867
#	174030
#	181719
#	213832
#	225135
#
# Disc length: 3366 seconds
#
# Revision: 0
# Processed by: cddbd v1.5.2PL0 Copyright (c) Steve Scherf et al.
# Submitted via: CDex 1.70beta2
#
DISCID=e10d2413
DTITLE=Johnny Cash - Johnny Cash At Folsom Prison
DYEAR=1968
DGENRE=Country
TTITLE0=Folsom Prison Blues 
TTITLE1=Busted 
TTITLE2=Dark As The Dungeon 
TTITLE3=I Still Miss Someone 
TTITLE4=Cocaine Blues 
TTITLE5=25 Minutes To Go 
TTITLE6=Orange Blossom Special 
TTITLE7=The Long Black Veil 
TTITLE8=Send A Picture Of Mother 
TTITLE9=The Wall 
TTITLE10=Dirty Old Egg-Suckin' Dog 
TTITLE11=Flushed From The Bathroom Of Your Heart 
TTITLE12=Joe Bean 
TTITLE13=Jackson
TTITLE14=Give My Love To Rose 
TTITLE15=I Got Stripes 
TTITLE16=The Legend Of John Henry's Hammer 
TTITLE17=Green, Green Grass Of Home 
TTITLE18=Greystone Chapel 
EXTD=YEAR: 1968
EXTT0=
EXTT1=
EXTT2=
EXTT3=
EXTT4=
EXTT5=
EXTT6=
EXTT7=
EXTT8=
EXTT9=
EXTT10=
EXTT11=
EXTT12=
EXTT13=
EXTT14=
EXTT15=
EXTT16=
EXTT17=
EXTT18=
PLAYORDER=
